# xmcd
#
# Track frame offsets:
#	150
#	17126
#	35474
#	51478
#	67453
#	84580
#	100969
#	117753
#	133075
#	152169
#	170742
#	185938
#	198379
#
# Disc length: 2816 seconds
#
# Revision: 5
# Processed by: cddbd v1.5.2PL0 Copyright (c) Steve Scherf et al.
# Submitted via: audiograbber 1.83.01
#
DISCID=c60afe0d
DTITLE=ANETT LOUISAN - In meiner Mitte
DYEAR=2011
DGENRE=Chanson
TTITLE0=IN MEINER MITTE
TTITLE1=VERXSCHWINDE
TTITLE2=WÜRDEST DU?
TTITLE3=ALLEIN UND BEISAMMEN
TTITLE4=PÄRCHENALLERGIE
TTITLE5=WENN ZWEI ZUEINANDER PASSEN
TTITLE6=AUF DER JAGD NACH MR.BIG
TTITLE7=SCHLAF (morgen früh bist du zurück)
TTITLE8=KLEINER AUGENBLICK
TTITLE9=ZWEITE CHANCE
TTITLE10=SCHÖNER STARKER TAG
TTITLE11=VON DER LIEBE
TTITLE12=VORSICHT - ZERBRECHLICH
EXTD=YEAR: 2011
EXTT0=
EXTT1=
EXTT2=
EXTT3=
EXTT4=
EXTT5=
EXTT6=
EXTT7=
EXTT8=
EXTT9=
EXTT10=
EXTT11=
EXTT12=
PLAYORDER=
